<svg width="457" height="116" viewBox="0 0 457 116" fill="none" xmlns="http://www.w3.org/2000/svg">
<path fill-rule="evenodd" clip-rule="evenodd" d="M53.6015 9.85693H86.4614C89.3602 9.85691 91.6983 9.85689 93.5916 10.0116C95.541 10.1709 97.2533 10.5074 98.8375 11.3145C101.354 12.5967 103.4 14.6425 104.682 17.1589C105.489 18.7431 105.826 20.4554 105.985 22.4048C106.139 24.2979 106.139 26.6365 106.139 29.5349V65.0704C106.139 67.9687 106.139 70.3065 105.985 72.1997C105.826 74.1491 105.489 75.8614 104.682 77.4455C103.4 79.9619 101.354 82.0078 98.8375 83.2899C97.2533 84.0971 95.541 84.4336 93.5916 84.5929C91.6983 84.7475 89.3601 84.7475 86.4615 84.7475H84.7421V86.4671C84.7422 89.3657 84.7422 91.7037 84.5875 93.597C84.4282 95.5464 84.0917 97.2587 83.2845 98.8428C82.0024 101.359 79.9565 103.405 77.4402 104.687C75.856 105.494 74.1437 105.831 72.1943 105.99C70.3012 106.145 67.9625 106.145 65.0642 106.145H29.5285C26.6302 106.145 24.2925 106.145 22.3994 105.99C20.45 105.831 18.7377 105.494 17.1535 104.687C14.6372 103.405 12.5913 101.359 11.3092 98.8428C10.502 97.2587 10.1655 95.5464 10.0062 93.597C9.85152 91.7036 9.85154 89.3656 9.85156 86.4668V50.9323C9.85154 48.0335 9.85152 45.6954 10.0062 43.8021C10.1655 41.8527 10.502 40.1404 11.3092 38.5562C12.5913 36.0398 14.6372 33.994 17.1535 32.7118C18.7377 31.9047 20.45 31.5682 22.3994 31.4089C24.2927 31.2542 26.6308 31.2542 29.5295 31.2542H29.5296H33.9235V29.5348V29.5348C33.9235 26.6361 33.9235 24.2981 34.0782 22.4048C34.2375 20.4554 34.574 18.7431 35.3811 17.1589C36.6633 14.6425 38.7091 12.5967 41.2255 11.3145C42.8097 10.5074 44.522 10.1709 46.4714 10.0116C48.3647 9.85689 50.7028 9.85691 53.6015 9.85693ZM86.3469 79.3982H84.7421V50.9319C84.7422 48.0333 84.7422 45.6954 84.5875 43.8021C84.4282 41.8527 84.0917 40.1404 83.2845 38.5562C82.0024 36.0398 79.9565 33.994 77.4402 32.7118C75.856 31.9047 74.1437 31.5682 72.1943 31.4089C70.301 31.2542 67.9629 31.2542 65.0642 31.2542H65.0641H39.2729V29.6494C39.2729 26.6094 39.2749 24.4902 39.4097 22.8404C39.542 21.2218 39.7885 20.2918 40.1474 19.5874C40.9167 18.0776 42.1442 16.8501 43.654 16.0808C44.3584 15.7219 45.2884 15.4754 46.907 15.3431C48.5568 15.2083 50.676 15.2063 53.716 15.2063H86.3469C89.387 15.2063 91.5061 15.2083 93.156 15.3431C94.7746 15.4754 95.7046 15.7219 96.4089 16.0808C97.9188 16.8501 99.1463 18.0776 99.9155 19.5874C100.274 20.2918 100.521 21.2218 100.653 22.8404C100.788 24.4902 100.79 26.6094 100.79 29.6494V64.955C100.79 67.995 100.788 70.1142 100.653 71.764C100.521 73.3827 100.274 74.3126 99.9155 75.017C99.1463 76.5268 97.9188 77.7543 96.4089 78.5236C95.7046 78.8825 94.7746 79.1291 93.156 79.2613C91.5061 79.3961 89.387 79.3982 86.3469 79.3982ZM26.4211 89.5753C27.8387 90.9928 29.5371 91.7016 31.5163 91.7016C32.8537 91.7016 34.0573 91.3807 35.1271 90.7388C36.2237 90.0701 37.093 89.1875 37.7349 88.0908C38.4036 86.9942 38.7379 85.7906 38.7379 84.48C38.7379 82.5008 38.0291 80.8024 36.6116 79.3848C35.194 77.9672 33.4956 77.2585 31.5163 77.2585C29.5371 77.2585 27.8387 77.9672 26.4211 79.3848C25.0035 80.8024 24.2947 82.5008 24.2947 84.48C24.2947 86.4593 25.0035 88.1577 26.4211 89.5753Z" fill="white"/>
<path d="M145.727 102.515L147.561 92.6095C148.356 92.8541 149.028 93.0069 149.579 93.0681C150.129 93.1292 150.74 93.1598 151.413 93.1598C153.37 93.1598 154.715 92.6095 155.448 91.5089C156.182 90.4083 156.549 88.7268 156.549 86.4645V35.929H167.738V87.7485C167.738 92.5178 166.393 96.3393 163.703 99.213C161.074 102.087 157.313 103.524 152.422 103.524C151.382 103.524 150.374 103.463 149.395 103.34C148.417 103.218 147.194 102.943 145.727 102.515ZM162.144 26.8491C160.248 26.8491 158.628 26.2071 157.283 24.9231C155.999 23.5779 155.357 21.9576 155.357 20.0621C155.357 18.1667 155.999 16.5769 157.283 15.2929C158.628 14.0089 160.248 13.3669 162.144 13.3669C163.978 13.3669 165.568 14.0089 166.913 15.2929C168.258 16.5769 168.931 18.1667 168.931 20.0621C168.931 21.9576 168.258 23.5779 166.913 24.9231C165.568 26.2071 163.978 26.8491 162.144 26.8491Z" fill="white"/>
<path d="M206.355 35.929H217.544V81.2367H207.181L206.355 75.1834C205.01 77.3235 202.992 79.0661 200.302 80.4113C197.612 81.7564 194.738 82.429 191.681 82.429C186.483 82.429 182.417 80.7781 179.482 77.4763C176.547 74.1746 175.08 69.7722 175.08 64.2692V35.929H186.269V60.3255C186.269 64.6055 187.095 67.6933 188.746 69.5888C190.397 71.4842 192.781 72.432 195.9 72.432C199.446 72.432 202.075 71.3925 203.787 69.3136C205.499 67.1736 206.355 63.9635 206.355 59.6834V35.929Z" fill="white"/>
<path d="M221.052 67.4793H231.691C231.752 69.4359 232.486 70.9951 233.892 72.1568C235.298 73.3186 237.255 73.8994 239.762 73.8994C242.452 73.8994 244.47 73.4103 245.815 72.432C247.222 71.4537 247.925 70.1391 247.925 68.4882C247.925 67.3876 247.558 66.4093 246.824 65.5533C246.09 64.6972 244.715 64.0552 242.697 63.6272L234.534 61.7012C230.438 60.784 227.38 59.3166 225.363 57.2988C223.406 55.2199 222.428 52.3767 222.428 48.7692C222.428 45.8343 223.192 43.2968 224.721 41.1568C226.31 39.0168 228.45 37.3965 231.141 36.2959C233.831 35.1341 236.919 34.5533 240.404 34.5533C243.767 34.5533 246.732 35.1647 249.3 36.3876C251.868 37.6105 253.856 39.3225 255.262 41.5237C256.729 43.7249 257.494 46.2929 257.555 49.2278H246.916C246.916 47.2712 246.304 45.7426 245.081 44.642C243.859 43.4803 242.147 42.8994 239.945 42.8994C237.744 42.8994 236.032 43.3886 234.809 44.3669C233.586 45.3452 232.975 46.6598 232.975 48.3107C232.975 50.8176 234.932 52.5296 238.845 53.4468L247.008 55.3728C250.798 56.2288 253.642 57.6045 255.537 59.5C257.494 61.3955 258.472 64.0858 258.472 67.571C258.472 70.6282 257.677 73.288 256.087 75.5503C254.498 77.7515 252.266 79.4635 249.392 80.6864C246.518 81.8481 243.217 82.429 239.487 82.429C233.862 82.429 229.367 81.0533 226.005 78.3018C222.703 75.5503 221.052 71.9428 221.052 67.4793Z" fill="white"/>
<path d="M258.829 35.929H287.444V45.284H258.829V35.929ZM278.731 81.2367H267.542V21.8047H278.731V81.2367Z" fill="white"/>
<path d="M308.994 82.429C304.592 82.429 300.801 81.4507 297.621 79.4941C294.503 77.4763 292.057 74.6943 290.284 71.1479C288.572 67.6016 287.716 63.4744 287.716 58.7663C287.716 54.0582 288.572 49.9004 290.284 46.2929C292.057 42.6243 294.595 39.7505 297.896 37.6716C301.198 35.5927 305.111 34.5533 309.636 34.5533C312.815 34.5533 315.72 35.1953 318.349 36.4793C320.978 37.7022 322.996 39.4448 324.402 41.7071V13H335.5V81.2367H325.228L324.494 74.1746C323.149 76.7426 321.07 78.7604 318.257 80.2278C315.506 81.6953 312.418 82.429 308.994 82.429ZM311.47 72.1568C314.099 72.1568 316.362 71.6065 318.257 70.5059C320.153 69.3442 321.62 67.7239 322.66 65.645C323.76 63.5049 324.31 61.0897 324.31 58.3994C324.31 55.6479 323.76 53.2633 322.66 51.2456C321.62 49.1667 320.153 47.5464 318.257 46.3846C316.362 45.1617 314.099 44.5503 311.47 44.5503C308.902 44.5503 306.67 45.1617 304.775 46.3846C302.88 47.5464 301.412 49.1667 300.373 51.2456C299.394 53.3245 298.905 55.7091 298.905 58.3994C298.905 61.0897 299.394 63.4744 300.373 65.5533C301.412 67.6322 302.88 69.2525 304.775 70.4142C306.67 71.5759 308.902 72.1568 311.47 72.1568Z" fill="white"/>
<path d="M351.013 82.3373C348.995 82.3373 347.252 81.6341 345.785 80.2278C344.317 78.8215 343.584 77.1095 343.584 75.0917C343.584 73.074 344.317 71.3619 345.785 69.9556C347.252 68.4882 348.995 67.7544 351.013 67.7544C353.03 67.7544 354.773 68.4882 356.241 69.9556C357.708 71.3619 358.442 73.074 358.442 75.0917C358.442 77.1095 357.708 78.8215 356.241 80.2278C354.773 81.6341 353.03 82.3373 351.013 82.3373Z" fill="white"/>
<path d="M361.078 58.4911C361.078 53.8442 362.026 49.717 363.921 46.1095C365.878 42.502 368.537 39.6894 371.9 37.6716C375.324 35.5927 379.268 34.5533 383.732 34.5533C389.907 34.5533 394.952 36.1736 398.865 39.4142C402.839 42.5937 405.132 46.9043 405.744 52.3462H394.554C393.882 49.7781 392.628 47.8521 390.794 46.5681C389.021 45.2229 386.789 44.5503 384.099 44.5503C381.775 44.5503 379.696 45.1312 377.862 46.2929C376.089 47.3935 374.713 48.9832 373.735 51.0621C372.756 53.141 372.267 55.6174 372.267 58.4911C372.267 61.3649 372.726 63.8412 373.643 65.9201C374.56 67.999 375.875 69.6193 377.587 70.7811C379.36 71.8817 381.439 72.432 383.823 72.432C386.636 72.432 388.96 71.7594 390.794 70.4142C392.689 69.069 393.943 67.143 394.554 64.6361H405.835C405.346 68.1825 404.093 71.3008 402.075 73.9911C400.118 76.6203 397.581 78.6992 394.462 80.2278C391.344 81.6953 387.798 82.429 383.823 82.429C379.238 82.429 375.233 81.4507 371.809 79.4941C368.385 77.4763 365.725 74.6943 363.829 71.1479C361.995 67.5404 361.078 63.3215 361.078 58.4911Z" fill="white"/>
<path d="M407.835 58.4911C407.835 53.783 408.875 49.6558 410.953 46.1095C413.032 42.502 415.906 39.6894 419.575 37.6716C423.243 35.6538 427.401 34.645 432.048 34.645C436.756 34.645 440.914 35.6538 444.521 37.6716C448.19 39.6894 451.064 42.502 453.143 46.1095C455.222 49.6558 456.261 53.783 456.261 58.4911C456.261 63.1992 455.222 67.357 453.143 70.9645C451.064 74.5109 448.19 77.2929 444.521 79.3107C440.914 81.3284 436.756 82.3373 432.048 82.3373C427.401 82.3373 423.243 81.3284 419.575 79.3107C415.906 77.2929 413.032 74.5109 410.953 70.9645C408.875 67.357 407.835 63.1992 407.835 58.4911ZM419.024 58.4911C419.024 61.2426 419.575 63.6578 420.675 65.7367C421.837 67.8156 423.366 69.4359 425.261 70.5976C427.218 71.7594 429.48 72.3402 432.048 72.3402C434.616 72.3402 436.879 71.7594 438.835 70.5976C440.792 69.4359 442.32 67.8156 443.421 65.7367C444.521 63.6578 445.072 61.2426 445.072 58.4911C445.072 55.6785 444.521 53.2633 443.421 51.2456C442.32 49.1667 440.792 47.5464 438.835 46.3846C436.879 45.2229 434.616 44.642 432.048 44.642C429.48 44.642 427.218 45.2229 425.261 46.3846C423.366 47.5464 421.837 49.1667 420.675 51.2456C419.575 53.2633 419.024 55.6785 419.024 58.4911Z" fill="white"/>
</svg>
