<svg width="448" height="98" viewBox="0 0 448 98" fill="none" xmlns="http://www.w3.org/2000/svg">
    <style>
        path { color: #0f0f10; }
        @media (prefers-color-scheme: dark) {
        path { color: white; }
        }
    </style>
    <path fill-rule="evenodd" clip-rule="evenodd" d="M44.6015 0.856934H77.4614C80.3602 0.856908 82.6983 0.856886 84.5916 1.01158C86.541 1.17085 88.2533 1.50736 89.8375 2.31454C92.3538 3.59668 94.3997 5.64254 95.6818 8.15889C96.489 9.74307 96.8255 11.4554 96.9848 13.4048C97.1395 15.2979 97.1395 17.6365 97.1394 20.5349V56.0704C97.1395 58.9687 97.1395 61.3065 96.9848 63.1997C96.8255 65.1491 96.489 66.8614 95.6818 68.4455C94.3997 70.9619 92.3538 73.0078 89.8375 74.2899C88.2533 75.0971 86.541 75.4336 84.5916 75.5929C82.6983 75.7476 80.3601 75.7475 77.4615 75.7475H75.7421V77.4671C75.7422 80.3657 75.7422 82.7037 75.5875 84.597C75.4282 86.5464 75.0917 88.2587 74.2845 89.8428C73.0024 92.3592 70.9565 94.4051 68.4402 95.6872C66.856 96.4944 65.1437 96.8309 63.1943 96.9902C61.3012 97.1449 58.9625 97.1448 56.0642 97.1448H20.5285C17.6302 97.1448 15.2925 97.1449 13.3994 96.9902C11.45 96.8309 9.7377 96.4944 8.15352 95.6872C5.63717 94.4051 3.59131 92.3592 2.30917 89.8428C1.50199 88.2587 1.16548 86.5464 1.00621 84.597C0.851515 82.7036 0.851537 80.3656 0.851563 77.4668V41.9323C0.851537 39.0335 0.851515 36.6954 1.00621 34.8021C1.16548 32.8527 1.50199 31.1404 2.30917 29.5562C3.59131 27.0398 5.63717 24.994 8.15352 23.7118C9.7377 22.9047 11.45 22.5682 13.3994 22.4089C15.2927 22.2542 17.6308 22.2542 20.5295 22.2542H24.9235V20.5348C24.9235 17.6361 24.9235 15.2981 25.0782 13.4048C25.2374 11.4554 25.574 9.74307 26.3811 8.15889C27.6633 5.64254 29.7091 3.59668 32.2255 2.31454C33.8097 1.50736 35.522 1.17085 37.4714 1.01158C39.3647 0.856886 41.7028 0.856908 44.6015 0.856934ZM77.3469 70.3982H75.7421V41.9319C75.7422 39.0333 75.7422 36.6954 75.5875 34.8021C75.4282 32.8527 75.0917 31.1404 74.2845 29.5562C73.0024 27.0398 70.9565 24.994 68.4402 23.7118C66.856 22.9047 65.1437 22.5682 63.1943 22.4089C61.301 22.2542 58.9629 22.2542 56.0642 22.2542H30.2729V20.6494C30.2729 17.6094 30.2749 15.4902 30.4097 13.8404C30.542 12.2218 30.7885 11.2918 31.1474 10.5874C31.9167 9.07763 33.1442 7.85011 34.654 7.08082C35.3584 6.72192 36.2884 6.47539 37.907 6.34314C39.5568 6.20834 41.676 6.20626 44.716 6.20626H77.3469C80.387 6.20626 82.5061 6.20834 84.156 6.34314C85.7746 6.47539 86.7046 6.72192 87.4089 7.08082C88.9188 7.85011 90.1463 9.07763 90.9156 10.5874C91.2745 11.2918 91.521 12.2218 91.6532 13.8404C91.788 15.4902 91.7901 17.6094 91.7901 20.6494V55.955C91.7901 58.995 91.788 61.1142 91.6532 62.764C91.521 64.3827 91.2745 65.3126 90.9156 66.017C90.1463 67.5268 88.9188 68.7543 87.4089 69.5236C86.7046 69.8825 85.7746 70.1291 84.156 70.2613C82.5061 70.3961 80.387 70.3982 77.3469 70.3982ZM17.4211 80.5753C18.8387 81.9929 20.5371 82.7016 22.5163 82.7016C23.8537 82.7016 25.0573 82.3807 26.1271 81.7388C27.2237 81.0701 28.093 80.1875 28.7349 79.0908C29.4036 77.9942 29.7379 76.7906 29.7379 75.48C29.7379 73.5008 29.0291 71.8024 27.6116 70.3848C26.194 68.9672 24.4956 68.2585 22.5163 68.2585C20.5371 68.2585 18.8387 68.9672 17.4211 70.3848C16.0035 71.8024 15.2947 73.5008 15.2947 75.48C15.2947 77.4593 16.0035 79.1577 17.4211 80.5753Z" fill="currentColor"/>
    <path d="M136.725 93.5148L138.559 83.6095C139.354 83.8541 140.027 84.0069 140.577 84.0681C141.127 84.1292 141.739 84.1598 142.411 84.1598C144.368 84.1598 145.713 83.6095 146.447 82.5089C147.181 81.4083 147.547 79.7269 147.547 77.4645V26.929H158.737V78.7486C158.737 83.5178 157.392 87.3393 154.701 90.213C152.072 93.0868 148.312 94.5237 143.42 94.5237C142.381 94.5237 141.372 94.4626 140.394 94.3403C139.415 94.218 138.192 93.9428 136.725 93.5148ZM153.142 17.8491C151.247 17.8491 149.626 17.2071 148.281 15.9231C146.997 14.5779 146.355 12.9576 146.355 11.0621C146.355 9.16668 146.997 7.57694 148.281 6.29291C149.626 5.00889 151.247 4.36688 153.142 4.36688C154.976 4.36688 156.566 5.00889 157.911 6.29291C159.257 7.57694 159.929 9.16668 159.929 11.0621C159.929 12.9576 159.257 14.5779 157.911 15.9231C156.566 17.2071 154.976 17.8491 153.142 17.8491Z" fill="currentColor"/>
    <path d="M197.354 26.929H208.543V72.2367H198.179L197.354 66.1835C196.008 68.3235 193.991 70.0661 191.3 71.4113C188.61 72.7564 185.736 73.429 182.679 73.429C177.482 73.429 173.416 71.7781 170.481 68.4764C167.546 65.1746 166.078 60.7722 166.078 55.2692V26.929H177.268V51.3255C177.268 55.6055 178.093 58.6933 179.744 60.5888C181.395 62.4842 183.78 63.432 186.898 63.432C190.444 63.432 193.073 62.3925 194.786 60.3136C196.498 58.1736 197.354 54.9635 197.354 50.6834V26.929Z" fill="currentColor"/>
    <path d="M212.05 58.4793H222.689C222.751 60.4359 223.484 61.9951 224.891 63.1568C226.297 64.3186 228.253 64.8994 230.76 64.8994C233.451 64.8994 235.468 64.4103 236.814 63.432C238.22 62.4537 238.923 61.1391 238.923 59.4882C238.923 58.3876 238.556 57.4093 237.823 56.5533C237.089 55.6973 235.713 55.0552 233.695 54.6272L225.533 52.7012C221.436 51.784 218.379 50.3166 216.361 48.2988C214.404 46.2199 213.426 43.3767 213.426 39.7692C213.426 36.8343 214.19 34.2969 215.719 32.1568C217.309 30.0168 219.449 28.3965 222.139 27.2959C224.829 26.1341 227.917 25.5533 231.402 25.5533C234.765 25.5533 237.731 26.1647 240.299 27.3876C242.867 28.6105 244.854 30.3225 246.26 32.5237C247.728 34.7249 248.492 37.2929 248.553 40.2278H237.914C237.914 38.2712 237.303 36.7426 236.08 35.642C234.857 34.4803 233.145 33.8994 230.944 33.8994C228.743 33.8994 227.031 34.3886 225.808 35.3669C224.585 36.3452 223.973 37.6598 223.973 39.3107C223.973 41.8176 225.93 43.5296 229.843 44.4468L238.006 46.3728C241.797 47.2288 244.64 48.6046 246.536 50.5C248.492 52.3955 249.47 55.0858 249.47 58.571C249.47 61.6282 248.676 64.288 247.086 66.5503C245.496 68.7515 243.264 70.4635 240.391 71.6864C237.517 72.8482 234.215 73.429 230.485 73.429C224.86 73.429 220.366 72.0533 217.003 69.3018C213.701 66.5503 212.05 62.9428 212.05 58.4793Z" fill="currentColor"/>
    <path d="M249.827 26.929H278.443V36.284H249.827V26.929ZM269.73 72.2367H258.54V12.8047H269.73V72.2367Z" fill="currentColor"/>
    <path d="M299.992 73.429C295.59 73.429 291.799 72.4507 288.62 70.4941C285.501 68.4764 283.055 65.6943 281.282 62.1479C279.57 58.6016 278.714 54.4744 278.714 49.7663C278.714 45.0582 279.57 40.9004 281.282 37.2929C283.055 33.6243 285.593 30.7505 288.895 28.6716C292.196 26.5927 296.11 25.5533 300.634 25.5533C303.814 25.5533 306.718 26.1953 309.347 27.4793C311.977 28.7022 313.994 30.4448 315.401 32.7071V4.00001H326.498V72.2367H316.226L315.492 65.1746C314.147 67.7426 312.068 69.7604 309.256 71.2278C306.504 72.6953 303.416 73.429 299.992 73.429ZM302.469 63.1568C305.098 63.1568 307.36 62.6065 309.256 61.5059C311.151 60.3442 312.619 58.7239 313.658 56.645C314.759 54.5049 315.309 52.0898 315.309 49.3994C315.309 46.6479 314.759 44.2633 313.658 42.2456C312.619 40.1667 311.151 38.5464 309.256 37.3846C307.36 36.1618 305.098 35.5503 302.469 35.5503C299.901 35.5503 297.669 36.1618 295.773 37.3846C293.878 38.5464 292.411 40.1667 291.371 42.2456C290.393 44.3245 289.904 46.7091 289.904 49.3994C289.904 52.0898 290.393 54.4744 291.371 56.5533C292.411 58.6322 293.878 60.2525 295.773 61.4142C297.669 62.576 299.901 63.1568 302.469 63.1568Z" fill="currentColor"/>
    <path d="M342.011 73.3373C339.993 73.3373 338.251 72.6341 336.783 71.2278C335.316 69.8215 334.582 68.1095 334.582 66.0917C334.582 64.074 335.316 62.362 336.783 60.9556C338.251 59.4882 339.993 58.7545 342.011 58.7545C344.029 58.7545 345.772 59.4882 347.239 60.9556C348.706 62.362 349.44 64.074 349.44 66.0917C349.44 68.1095 348.706 69.8215 347.239 71.2278C345.772 72.6341 344.029 73.3373 342.011 73.3373Z" fill="currentColor"/>
    <path d="M352.076 49.4911C352.076 44.8442 353.024 40.717 354.919 37.1095C356.876 33.502 359.536 30.6894 362.899 28.6716C366.323 26.5927 370.267 25.5533 374.73 25.5533C380.906 25.5533 385.95 27.1736 389.863 30.4142C393.838 33.5937 396.131 37.9044 396.742 43.3462H385.553C384.88 40.7781 383.627 38.8521 381.792 37.5681C380.019 36.2229 377.787 35.5503 375.097 35.5503C372.774 35.5503 370.695 36.1312 368.86 37.2929C367.087 38.3935 365.711 39.9833 364.733 42.0621C363.755 44.141 363.266 46.6174 363.266 49.4911C363.266 52.3649 363.724 54.8412 364.641 56.9201C365.559 58.999 366.873 60.6194 368.585 61.7811C370.358 62.8817 372.437 63.432 374.822 63.432C377.634 63.432 379.958 62.7594 381.792 61.4142C383.688 60.0691 384.941 58.143 385.553 55.6361H396.834C396.345 59.1825 395.091 62.3008 393.073 64.9911C391.117 67.6203 388.579 69.6992 385.461 71.2278C382.343 72.6953 378.796 73.429 374.822 73.429C370.236 73.429 366.231 72.4507 362.807 70.4941C359.383 68.4764 356.723 65.6943 354.828 62.1479C352.993 58.5405 352.076 54.3215 352.076 49.4911Z" fill="currentColor"/>
    <path d="M398.834 49.4911C398.834 44.7831 399.873 40.6558 401.952 37.1095C404.031 33.502 406.905 30.6894 410.573 28.6716C414.242 26.6539 418.4 25.645 423.047 25.645C427.755 25.645 431.912 26.6539 435.52 28.6716C439.189 30.6894 442.062 33.502 444.141 37.1095C446.22 40.6558 447.26 44.7831 447.26 49.4911C447.26 54.1992 446.22 58.357 444.141 61.9645C442.062 65.5109 439.189 68.2929 435.52 70.3107C431.912 72.3284 427.755 73.3373 423.047 73.3373C418.4 73.3373 414.242 72.3284 410.573 70.3107C406.905 68.2929 404.031 65.5109 401.952 61.9645C399.873 58.357 398.834 54.1992 398.834 49.4911ZM410.023 49.4911C410.023 52.2426 410.573 54.6578 411.674 56.7367C412.836 58.8156 414.364 60.4359 416.26 61.5977C418.216 62.7594 420.479 63.3403 423.047 63.3403C425.615 63.3403 427.877 62.7594 429.834 61.5977C431.79 60.4359 433.319 58.8156 434.419 56.7367C435.52 54.6578 436.07 52.2426 436.07 49.4911C436.07 46.6785 435.52 44.2633 434.419 42.2456C433.319 40.1667 431.79 38.5464 429.834 37.3846C427.877 36.2229 425.615 35.642 423.047 35.642C420.479 35.642 418.216 36.2229 416.26 37.3846C414.364 38.5464 412.836 40.1667 411.674 42.2456C410.573 44.2633 410.023 46.6785 410.023 49.4911Z" fill="currentColor"/>
</svg>
