<svg width="838" height="141" viewBox="0 0 838 141" fill="none" xmlns="http://www.w3.org/2000/svg">
<style>
        path { color: #0f0f10; }
        @media (prefers-color-scheme: dark) {
        path { color: white; }
        }
    </style>
<path d="M167.936 113V49.4543H177.7V113H167.936ZM172.901 38.8633C170.998 38.8633 169.357 38.2152 167.977 36.9189C166.626 35.6226 165.95 34.0643 165.95 32.244C165.95 30.4237 166.626 28.8654 167.977 27.5691C169.357 26.2728 170.998 25.6246 172.901 25.6246C174.804 25.6246 176.431 26.2728 177.782 27.5691C179.161 28.8654 179.851 30.4237 179.851 32.244C179.851 34.0643 179.161 35.6226 177.782 36.9189C176.431 38.2152 174.804 38.8633 172.901 38.8633ZM205.346 74.7733V113H195.582V49.4543H205.015V59.3833H205.842C207.332 56.1564 209.593 53.5638 212.627 51.6056C215.661 49.6198 219.577 48.6269 224.376 48.6269C228.679 48.6269 232.444 49.5094 235.671 51.2746C238.898 53.0122 241.407 55.6599 243.2 59.2178C244.993 62.7481 245.889 67.2162 245.889 72.622V113H236.126V73.2839C236.126 68.2918 234.829 64.403 232.237 61.6173C229.644 58.8041 226.086 57.3975 221.563 57.3975C218.447 57.3975 215.661 58.0732 213.206 59.4247C210.779 60.7761 208.862 62.7481 207.456 65.3407C206.049 67.9333 205.346 71.0775 205.346 74.7733ZM291.366 49.4543V57.7285H258.435V49.4543H291.366ZM268.033 34.2298H277.797V94.7968C277.797 97.5549 278.196 99.6234 278.996 101.002C279.824 102.354 280.872 103.264 282.141 103.733C283.437 104.174 284.802 104.395 286.236 104.395C287.312 104.395 288.194 104.34 288.884 104.229C289.573 104.091 290.125 103.981 290.539 103.898L292.525 112.669C291.863 112.917 290.939 113.165 289.753 113.414C288.567 113.69 287.064 113.827 285.243 113.827C282.485 113.827 279.782 113.234 277.135 112.048C274.514 110.863 272.336 109.056 270.598 106.629C268.888 104.202 268.033 101.14 268.033 97.4445V34.2298ZM332.013 114.324C325.89 114.324 320.609 112.972 316.168 110.27C311.755 107.539 308.349 103.733 305.949 98.8511C303.578 93.9418 302.392 88.2326 302.392 81.7236C302.392 75.2146 303.578 69.4778 305.949 64.5133C308.349 59.5212 311.686 55.6323 315.961 52.8467C320.264 50.0335 325.283 48.6269 331.02 48.6269C334.33 48.6269 337.598 49.1785 340.825 50.2817C344.052 51.3849 346.989 53.1777 349.637 55.6599C352.285 58.1146 354.395 61.3691 355.967 65.4235C357.539 69.4778 358.325 74.4699 358.325 80.3997V84.5368H309.342V76.0971H348.396C348.396 72.5117 347.679 69.3123 346.245 66.4991C344.838 63.6859 342.825 61.4656 340.205 59.8384C337.612 58.2111 334.551 57.3975 331.02 57.3975C327.131 57.3975 323.767 58.3628 320.926 60.2935C318.113 62.1965 315.947 64.6788 314.431 67.7402C312.914 70.8017 312.155 74.0838 312.155 77.5865V83.2129C312.155 88.012 312.983 92.0801 314.637 95.4174C316.32 98.727 318.65 101.251 321.629 102.988C324.608 104.698 328.069 105.553 332.013 105.553C334.578 105.553 336.895 105.195 338.963 104.478C341.06 103.733 342.866 102.63 344.383 101.168C345.9 99.6786 347.072 97.8307 347.9 95.6242L357.332 98.272C356.339 101.471 354.671 104.285 352.326 106.712C349.982 109.111 347.086 110.987 343.638 112.338C340.191 113.662 336.316 114.324 332.013 114.324ZM382.941 74.7733V113H373.177V49.4543H382.61V59.3833H383.437C384.927 56.1564 387.188 53.5638 390.222 51.6056C393.256 49.6198 397.172 48.6269 401.971 48.6269C406.274 48.6269 410.039 49.5094 413.266 51.2746C416.493 53.0122 419.002 55.6599 420.795 59.2178C422.588 62.7481 423.484 67.2162 423.484 72.622V113H413.721V73.2839C413.721 68.2918 412.424 64.403 409.832 61.6173C407.239 58.8041 403.681 57.3975 399.158 57.3975C396.042 57.3975 393.256 58.0732 390.801 59.4247C388.374 60.7761 386.457 62.7481 385.051 65.3407C383.644 67.9333 382.941 71.0775 382.941 74.7733ZM468.961 49.4543V57.7285H436.03V49.4543H468.961ZM445.628 34.2298H455.392V94.7968C455.392 97.5549 455.791 99.6234 456.591 101.002C457.419 102.354 458.467 103.264 459.735 103.733C461.032 104.174 462.397 104.395 463.831 104.395C464.907 104.395 465.789 104.34 466.479 104.229C467.168 104.091 467.72 103.981 468.134 103.898L470.12 112.669C469.458 112.917 468.534 113.165 467.348 113.414C466.162 113.69 464.659 113.827 462.838 113.827C460.08 113.827 457.377 113.234 454.73 112.048C452.109 110.863 449.931 109.056 448.193 106.629C446.483 104.202 445.628 101.14 445.628 97.4445V34.2298ZM523.695 87.0191V49.4543H533.458V113H523.695V102.244H523.033C521.544 105.47 519.227 108.215 516.083 110.476C512.938 112.71 508.967 113.827 504.168 113.827C500.196 113.827 496.666 112.959 493.577 111.221C490.488 109.456 488.061 106.808 486.296 103.278C484.53 99.7199 483.648 95.2381 483.648 89.8323V49.4543H493.411V89.1704C493.411 93.8039 494.708 97.4997 497.3 100.258C499.92 103.016 503.258 104.395 507.312 104.395C509.739 104.395 512.208 103.774 514.717 102.533C517.255 101.292 519.379 99.389 521.089 96.824C522.826 94.259 523.695 90.9907 523.695 87.0191ZM551.341 113V49.4543H561.105V113H551.341ZM556.306 38.8633C554.402 38.8633 552.761 38.2152 551.382 36.9189C550.031 35.6226 549.355 34.0643 549.355 32.244C549.355 30.4237 550.031 28.8654 551.382 27.5691C552.761 26.2728 554.402 25.6246 556.306 25.6246C558.209 25.6246 559.836 26.2728 561.187 27.5691C562.566 28.8654 563.256 30.4237 563.256 32.244C563.256 34.0643 562.566 35.6226 561.187 36.9189C559.836 38.2152 558.209 38.8633 556.306 38.8633Z" fill="currentColor"/>
<path d="M586.103 113.662C584.062 113.662 582.311 112.931 580.849 111.469C579.387 110.008 578.656 108.256 578.656 106.215C578.656 104.174 579.387 102.423 580.849 100.961C582.311 99.4993 584.062 98.7684 586.103 98.7684C588.144 98.7684 589.895 99.4993 591.357 100.961C592.819 102.423 593.55 104.174 593.55 106.215C593.55 107.567 593.205 108.808 592.515 109.939C591.853 111.069 590.957 111.98 589.826 112.669C588.723 113.331 587.482 113.662 586.103 113.662ZM636.886 114.324C630.928 114.324 625.798 112.917 621.496 110.104C617.193 107.291 613.883 103.416 611.567 98.4788C609.25 93.5419 608.092 87.9016 608.092 81.5581C608.092 75.1042 609.278 69.4088 611.649 64.4719C614.049 59.5074 617.386 55.6323 621.661 52.8467C625.964 50.0335 630.983 48.6269 636.72 48.6269C641.188 48.6269 645.215 49.4543 648.801 51.1091C652.386 52.764 655.323 55.0807 657.613 58.0594C659.902 61.0381 661.322 64.5133 661.874 68.4849H652.11C651.366 65.5889 649.711 63.0239 647.146 60.7899C644.608 58.5283 641.188 57.3975 636.886 57.3975C633.08 57.3975 629.742 58.3904 626.874 60.3762C624.033 62.3344 621.813 65.1063 620.213 68.6918C618.641 72.2496 617.855 76.4281 617.855 81.2271C617.855 86.1365 618.627 90.4115 620.172 94.0521C621.744 97.6928 623.95 100.52 626.791 102.533C629.66 104.547 633.024 105.553 636.886 105.553C639.423 105.553 641.726 105.112 643.795 104.229C645.863 103.347 647.615 102.078 649.049 100.423C650.483 98.7684 651.503 96.7826 652.11 94.4658H661.874C661.322 98.2168 659.957 101.595 657.778 104.602C655.627 107.58 652.772 109.952 649.214 111.718C645.684 113.455 641.574 114.324 636.886 114.324ZM701.962 114.324C696.225 114.324 691.192 112.959 686.862 110.228C682.559 107.498 679.194 103.678 676.767 98.7684C674.368 93.8591 673.168 88.1223 673.168 81.5581C673.168 74.9388 674.368 69.1606 676.767 64.2237C679.194 59.2868 682.559 55.4531 686.862 52.7226C691.192 49.9921 696.225 48.6269 701.962 48.6269C707.699 48.6269 712.719 49.9921 717.021 52.7226C721.351 55.4531 724.716 59.2868 727.116 64.2237C729.543 69.1606 730.756 74.9388 730.756 81.5581C730.756 88.1223 729.543 93.8591 727.116 98.7684C724.716 103.678 721.351 107.498 717.021 110.228C712.719 112.959 707.699 114.324 701.962 114.324ZM701.962 105.553C706.32 105.553 709.905 104.436 712.719 102.202C715.532 99.9682 717.614 97.0308 718.966 93.3902C720.317 89.7495 720.993 85.8055 720.993 81.5581C720.993 77.3107 720.317 73.3529 718.966 69.6847C717.614 66.0164 715.532 63.0515 712.719 60.7899C709.905 58.5283 706.32 57.3975 701.962 57.3975C697.604 57.3975 694.019 58.5283 691.206 60.7899C688.393 63.0515 686.31 66.0164 684.959 69.6847C683.607 73.3529 682.932 77.3107 682.932 81.5581C682.932 85.8055 683.607 89.7495 684.959 93.3902C686.31 97.0308 688.393 99.9682 691.206 102.202C694.019 104.436 697.604 105.553 701.962 105.553ZM745.66 113V49.4543H755.093V59.3833H755.92C757.244 55.9909 759.382 53.3569 762.333 51.4815C765.284 49.5784 768.828 48.6269 772.965 48.6269C777.157 48.6269 780.646 49.5784 783.432 51.4815C786.245 53.3569 788.438 55.9909 790.01 59.3833H790.672C792.299 56.1012 794.74 53.4948 797.994 51.5642C801.249 49.606 805.152 48.6269 809.702 48.6269C815.384 48.6269 820.031 50.4058 823.644 53.9637C827.257 57.494 829.064 62.9964 829.064 70.4707V113H819.3V70.4707C819.3 65.782 818.018 62.431 815.453 60.4176C812.888 58.4042 809.868 57.3975 806.393 57.3975C801.925 57.3975 798.463 58.7489 796.009 61.4518C793.554 64.1272 792.327 67.5196 792.327 71.6291V113H782.398V69.4778C782.398 65.8647 781.225 62.955 778.881 60.7485C776.537 58.5145 773.517 57.3975 769.821 57.3975C767.283 57.3975 764.912 58.0732 762.705 59.4247C760.526 60.7761 758.761 62.6516 757.41 65.0511C756.086 67.423 755.424 70.1673 755.424 73.2839V113H745.66Z" fill="#71717B"/>
<rect y="20" width="101" height="101" rx="18.9375" fill="#0D6DFD"/>
<g filter="url(#filter0_d_84_17)">
<path d="M16.9648 41.7723C16.9648 39.1172 19.1172 36.9648 21.7723 36.9648H31.3873C34.0424 36.9648 36.1948 39.1172 36.1948 41.7723V51.3873C36.1948 54.0424 34.0424 56.1948 31.3873 56.1948H21.7723C19.1172 56.1948 16.9648 54.0424 16.9648 51.3873V41.7723Z" fill="white" shape-rendering="crispEdges"/>
<path d="M40.9291 41.7723C40.9291 39.1172 43.0815 36.9648 45.7366 36.9648H55.3516C58.0067 36.9648 60.1591 39.1172 60.1591 41.7723V51.3873C60.1591 54.0424 58.0067 56.1948 55.3516 56.1948H45.7366C43.0815 56.1948 40.9291 54.0424 40.9291 51.3873V41.7723Z" fill="white" fill-opacity="0.5" shape-rendering="crispEdges"/>
<path d="M64.8935 41.7723C64.8935 39.1172 67.0458 36.9648 69.7009 36.9648H79.3159C81.971 36.9648 84.1234 39.1172 84.1234 41.7723V51.3873C84.1234 54.0424 81.971 56.1948 79.3159 56.1948H69.7009C67.0458 56.1948 64.8935 54.0424 64.8935 51.3873V41.7723Z" fill="white" shape-rendering="crispEdges"/>
<path d="M64.8935 65.7366C64.8935 63.0815 67.0458 60.9291 69.7009 60.9291H79.3159C81.971 60.9291 84.1234 63.0815 84.1234 65.7366V75.3516C84.1234 78.0067 81.971 80.1591 79.3159 80.1591H69.7009C67.0458 80.1591 64.8935 78.0067 64.8935 75.3516V65.7366Z" fill="white" fill-opacity="0.5" shape-rendering="crispEdges"/>
</g>
<defs>
<filter id="filter0_d_84_17" x="16.6443" y="36.8046" width="67.7992" height="43.8351" filterUnits="userSpaceOnUse" color-interpolation-filters="sRGB">
<feFlood flood-opacity="0" result="BackgroundImageFix"/>
<feColorMatrix in="SourceAlpha" type="matrix" values="0 0 0 0 0 0 0 0 0 0 0 0 0 0 0 0 0 0 127 0" result="hardAlpha"/>
<feOffset dy="0.160249"/>
<feGaussianBlur stdDeviation="0.160249"/>
<feComposite in2="hardAlpha" operator="out"/>
<feColorMatrix type="matrix" values="0 0 0 0 0 0 0 0 0 0 0 0 0 0 0 0 0 0 0.05 0"/>
<feBlend mode="normal" in2="BackgroundImageFix" result="effect1_dropShadow_84_17"/>
<feBlend mode="normal" in="SourceGraphic" in2="effect1_dropShadow_84_17" result="shape"/>
</filter>
</defs>
</svg>
