<svg width="329" height="97" viewBox="0 0 329 97" fill="none" xmlns="http://www.w3.org/2000/svg">
<style>
        path { color: #0f0f10; }
        @media (prefers-color-scheme: dark) {
        path { color: white; }
        }
    </style>
<path fill-rule="evenodd" clip-rule="evenodd" d="M44.6015 6.72107e-07H77.4614C80.3602 -2.53279e-05 82.6983 -4.73559e-05 84.5916 0.154647C86.541 0.313917 88.2533 0.650427 89.8375 1.45761C92.3538 2.73975 94.3997 4.78561 95.6818 7.30196C96.489 8.88614 96.8255 10.5985 96.9848 12.5479C97.1395 14.441 97.1395 16.7796 97.1394 19.678V55.2135C97.1395 58.1118 97.1395 60.4496 96.9848 62.3428C96.8255 64.2922 96.489 66.0045 95.6818 67.5886C94.3997 70.105 92.3538 72.1509 89.8375 73.433C88.2533 74.2402 86.541 74.5767 84.5916 74.736C82.6983 74.8907 80.3601 74.8906 77.4615 74.8906H75.7421V76.6102C75.7422 79.5088 75.7422 81.8468 75.5875 83.7401C75.4282 85.6895 75.0917 87.4018 74.2845 88.9859C73.0024 91.5023 70.9565 93.5482 68.4402 94.8303C66.856 95.6375 65.1437 95.974 63.1943 96.1333C61.3012 96.288 58.9625 96.2879 56.0642 96.2879H20.5285C17.6302 96.2879 15.2925 96.288 13.3994 96.1333C11.45 95.974 9.7377 95.6375 8.15352 94.8303C5.63717 93.5482 3.59131 91.5023 2.30917 88.9859C1.50199 87.4018 1.16548 85.6895 1.00621 83.7401C0.851515 81.8467 0.851537 79.5087 0.851563 76.6099V41.0754C0.851537 38.1766 0.851515 35.8385 1.00621 33.9452C1.16548 31.9958 1.50199 30.2835 2.30917 28.6993C3.59131 26.1829 5.63717 24.1371 8.15352 22.8549C9.7377 22.0478 11.45 21.7113 13.3994 21.552C15.2927 21.3973 17.6308 21.3973 20.5295 21.3973H24.9235V19.6779C24.9235 16.7792 24.9235 14.4412 25.0782 12.5479C25.2374 10.5985 25.574 8.88614 26.3811 7.30196C27.6633 4.78561 29.7091 2.73975 32.2255 1.45761C33.8097 0.650427 35.522 0.313917 37.4714 0.154647C39.3647 -4.73559e-05 41.7028 -2.53279e-05 44.6015 6.72107e-07ZM77.3469 69.5413H75.7421V41.075C75.7422 38.1764 75.7422 35.8385 75.5875 33.9452C75.4282 31.9958 75.0917 30.2835 74.2845 28.6993C73.0024 26.1829 70.9565 24.1371 68.4402 22.8549C66.856 22.0478 65.1437 21.7113 63.1943 21.552C61.301 21.3973 58.9629 21.3973 56.0642 21.3973H30.2729V19.7925C30.2729 16.7525 30.2749 14.6333 30.4097 12.9835C30.542 11.3649 30.7885 10.4349 31.1474 9.73047C31.9167 8.2207 33.1442 6.99318 34.654 6.22389C35.3584 5.86499 36.2884 5.61846 37.907 5.48621C39.5568 5.35141 41.676 5.34933 44.716 5.34933H77.3469C80.387 5.34933 82.5061 5.35141 84.156 5.48621C85.7746 5.61846 86.7046 5.86499 87.4089 6.22389C88.9188 6.99318 90.1463 8.2207 90.9156 9.73047C91.2745 10.4349 91.521 11.3649 91.6532 12.9835C91.788 14.6333 91.7901 16.7525 91.7901 19.7925V55.0981C91.7901 58.1381 91.788 60.2573 91.6532 61.9071C91.521 63.5258 91.2745 64.4557 90.9156 65.1601C90.1463 66.6699 88.9188 67.8974 87.4089 68.6667C86.7046 69.0256 85.7746 69.2722 84.156 69.4044C82.5061 69.5392 80.387 69.5413 77.3469 69.5413ZM17.4211 79.7184C18.8387 81.136 20.5371 81.8447 22.5163 81.8447C23.8537 81.8447 25.0573 81.5238 26.1271 80.8819C27.2237 80.2132 28.093 79.3306 28.7349 78.2339C29.4036 77.1373 29.7379 75.9337 29.7379 74.6231C29.7379 72.6439 29.0291 70.9455 27.6116 69.5279C26.194 68.1103 24.4956 67.4016 22.5163 67.4016C20.5371 67.4016 18.8387 68.1103 17.4211 69.5279C16.0035 70.9455 15.2947 72.6439 15.2947 74.6231C15.2947 76.6024 16.0035 78.3008 17.4211 79.7184Z" fill="currentColor"/>
<path d="M129.522 22.1657H142.062V78.423C142.062 82.2566 141.334 85.4205 139.879 87.9147C138.425 90.4089 136.323 92.2679 133.575 93.4919C130.827 94.7159 127.489 95.3279 123.563 95.3279C123.102 95.3279 122.674 95.3164 122.282 95.2933C121.889 95.2933 121.462 95.2817 121 95.2586V85.0395C121.346 85.0626 121.658 85.0741 121.935 85.0741C122.212 85.0972 122.501 85.1087 122.801 85.1087C125.203 85.1087 126.924 84.5198 127.963 83.342C129.002 82.1873 129.522 80.4899 129.522 78.2498V22.1657ZM135.757 14.6139C133.748 14.6139 132.027 13.9557 130.596 12.6393C129.187 11.2999 128.482 9.69484 128.482 7.82421C128.482 5.93049 129.187 4.32545 130.596 3.00908C132.027 1.66962 133.748 0.999895 135.757 0.999895C137.743 0.999895 139.441 1.66962 140.849 3.00908C142.281 4.32545 142.997 5.93049 142.997 7.82421C142.997 9.69484 142.281 11.2999 140.849 12.6393C139.441 13.9557 137.743 14.6139 135.757 14.6139Z" fill="currentColor"/>
<path d="M183.018 52.9963V22.1657H195.558V75.3746H183.399V65.9175H182.845C181.644 68.8967 179.669 71.3331 176.921 73.2268C174.196 75.1205 170.836 76.0674 166.84 76.0674C163.353 76.0674 160.27 75.2937 157.591 73.7464C154.935 72.176 152.857 69.9013 151.356 66.9221C149.855 63.9199 149.104 60.2941 149.104 56.0448V22.1657H161.644V54.1049C161.644 57.4766 162.568 60.1555 164.415 62.1416C166.263 64.1277 168.688 65.1208 171.69 65.1208C173.538 65.1208 175.327 64.6704 177.06 63.7698C178.792 62.8691 180.212 61.5296 181.32 59.7514C182.452 57.95 183.018 55.6984 183.018 52.9963Z" fill="currentColor"/>
<path d="M244.655 36.23L233.223 37.4771C232.9 36.3224 232.334 35.237 231.526 34.2208C230.74 33.2047 229.678 32.3848 228.339 31.7613C226.999 31.1377 225.359 30.826 223.419 30.826C220.81 30.826 218.616 31.3918 216.838 32.5234C215.083 33.655 214.216 35.1215 214.24 36.9228C214.216 38.4701 214.782 39.7288 215.937 40.6987C217.115 41.6687 219.055 42.4654 221.757 43.089L230.833 45.0289C235.867 46.1143 239.608 47.8348 242.056 50.1904C244.528 52.546 245.775 55.6291 245.798 59.4396C245.775 62.7883 244.793 65.7443 242.853 68.3078C240.936 70.8481 238.269 72.8342 234.851 74.2661C231.433 75.6979 227.507 76.4138 223.073 76.4138C216.561 76.4138 211.318 75.0512 207.346 72.3261C203.374 69.5779 201.007 65.7559 200.245 60.8599L212.473 59.6821C213.027 62.0839 214.205 63.8968 216.006 65.1208C217.808 66.3448 220.152 66.9567 223.038 66.9567C226.018 66.9567 228.408 66.3448 230.209 65.1208C232.034 63.8968 232.946 62.3841 232.946 60.5828C232.946 59.0586 232.357 57.7999 231.179 56.8069C230.024 55.8138 228.223 55.0517 225.775 54.5206L216.699 52.6153C211.595 51.553 207.819 49.7632 205.371 47.2459C202.923 44.7056 201.711 41.4955 201.734 37.6157C201.711 34.3363 202.6 31.4957 204.401 29.0939C206.226 26.669 208.755 24.7984 211.988 23.482C215.244 22.1426 218.997 21.4729 223.246 21.4729C229.482 21.4729 234.389 22.8008 237.969 25.4566C241.571 28.1124 243.8 31.7036 244.655 36.23Z" fill="currentColor"/>
<path d="M276.855 22.1657V31.8652H246.267V22.1657H276.855ZM253.819 9.41771H266.359V59.3703C266.359 61.0562 266.613 62.3495 267.121 63.2501C267.652 64.1277 268.345 64.7282 269.199 65.0515C270.054 65.3748 271.001 65.5365 272.04 65.5365C272.825 65.5365 273.541 65.4787 274.188 65.3633C274.857 65.2478 275.365 65.1439 275.712 65.0515L277.825 74.8549C277.155 75.0859 276.197 75.3399 274.95 75.6171C273.726 75.8942 272.225 76.0558 270.446 76.102C267.306 76.1944 264.476 75.721 261.959 74.6817C259.442 73.6194 257.444 71.9797 255.966 69.7627C254.511 67.5457 253.795 64.7744 253.819 61.4488V9.41771Z" fill="currentColor"/>
<path d="M300.663 76.3099C296.483 76.3099 292.742 75.236 289.44 73.0882C286.137 70.9405 283.528 67.8228 281.611 63.7351C279.694 59.6475 278.736 54.6822 278.736 48.8394C278.736 42.9273 279.706 37.939 281.645 33.8744C283.608 29.7867 286.253 26.7037 289.578 24.6252C292.904 22.5236 296.61 21.4729 300.698 21.4729C303.816 21.4729 306.379 22.004 308.388 23.0663C310.398 24.1056 311.991 25.3642 313.169 26.8422C314.347 28.2972 315.259 29.6713 315.906 30.9645H316.425V4.42937H329V75.3746H316.668V66.9914H315.906C315.259 68.2847 314.324 69.6588 313.1 71.1137C311.876 72.5455 310.259 73.7695 308.25 74.7857C306.241 75.8018 303.712 76.3099 300.663 76.3099ZM304.162 66.0214C306.818 66.0214 309.081 65.3055 310.952 63.8737C312.823 62.4188 314.243 60.398 315.213 57.8115C316.183 55.2249 316.668 52.2111 316.668 48.7701C316.668 45.3291 316.183 42.3384 315.213 39.798C314.266 37.2577 312.857 35.2831 310.987 33.8744C309.139 32.4657 306.864 31.7613 304.162 31.7613C301.368 31.7613 299.035 32.4887 297.165 33.9437C295.294 35.3986 293.885 37.4078 292.939 39.9713C291.992 42.5347 291.518 45.4677 291.518 48.7701C291.518 52.0957 291.992 55.0633 292.939 57.6729C293.908 60.2595 295.329 62.3033 297.199 63.8044C299.093 65.2824 301.414 66.0214 304.162 66.0214Z" fill="currentColor"/>
</svg>
